<?xml version="1.0" standalone="no"?>
<!DOCTYPE svg PUBLIC "-//W3C//DTD SVG 20010904//EN"
 "http://www.w3.org/TR/2001/REC-SVG-20010904/DTD/svg10.dtd">
<svg version="1.0" xmlns="http://www.w3.org/2000/svg"
 width="213.000000pt" height="213.000000pt" viewBox="0 0 213.000000 213.000000"
 preserveAspectRatio="xMidYMid meet">
<metadata>
Created by potrace 1.11, written by Peter Selinger 2001-2013
</metadata>
<g transform="translate(0.000000,213.000000) scale(0.100000,-0.100000)"
fill="#000000" stroke="none">
<path d="M1259 2074 c-30 -25 -70 -60 -89 -78 -19 -17 -64 -56 -100 -86 -101
-85 -114 -101 -135 -167 -20 -63 -22 -65 -85 -78 -8 -2 -62 -15 -120 -30 -96
-25 -127 -32 -155 -38 -21 -5 -75 -51 -81 -70 -3 -10 -8 -16 -11 -13 -10 10
-174 -134 -167 -146 3 -4 -2 -8 -11 -8 -9 0 -33 -15 -53 -34 -88 -80 -107 -96
-114 -96 -7 0 39 -115 87 -215 13 -27 88 -194 166 -370 78 -176 154 -347 169
-380 15 -33 33 -75 40 -93 12 -31 14 -33 59 -28 39 3 468 68 539 81 15 2 25
-2 29 -13 4 -9 21 -51 40 -92 l33 -75 -6 98 c-3 53 -3 97 1 97 3 0 95 -49 204
-109 202 -111 241 -129 241 -113 0 4 45 88 100 186 55 98 100 180 100 182 0 2
11 22 25 44 l24 39 -67 37 c-37 21 -80 45 -97 54 -183 100 -225 125 -225 131
0 4 68 55 150 114 82 59 150 108 150 110 0 10 -93 277 -180 515 -23 63 -48
133 -55 155 -27 80 -115 327 -120 335 -7 11 -55 -9 -55 -22 0 -4 -6 -8 -12 -8
-7 0 -41 -18 -76 -40 -34 -22 -65 -40 -67 -40 -3 0 -34 -18 -69 -39 -35 -22
-66 -38 -68 -35 -4 4 36 134 97 317 12 37 21 67 21 67 -1 0 -27 -21 -57 -46z"/>
</g>
</svg>
